<?xml version="1.0" encoding="UTF-8" standalone="no"?>
<!DOCTYPE svg PUBLIC "-//W3C//DTD SVG 1.1//EN"
 "http://www.w3.org/Graphics/SVG/1.1/DTD/svg11.dtd">
<!-- Generated by graphviz version 13.1.0 (20250701.0955)
 -->
<!-- Title: ROS Pages: 1 -->
<svg width="2142pt" height="1276pt"
 viewBox="0.00 0.00 2142.00 1276.00" xmlns="http://www.w3.org/2000/svg" xmlns:xlink="http://www.w3.org/1999/xlink">
<g id="graph0" class="graph" transform="scale(1 1) rotate(0) translate(4 1272)">
<title>ROS</title>
<polygon fill="white" stroke="none" points="-4,4 -4,-1272 2138.02,-1272 2138.02,4 -4,4"/>
<g id="clust1" class="cluster">
<title>cluster_camera</title>
<polygon fill="#eef7ff" stroke="#eef7ff" stroke-width="1.2" points="16.62,-502 16.62,-633 342.9,-633 342.9,-502 16.62,-502"/>
<text xml:space="preserve" text-anchor="middle" x="179.76" y="-615.7" font-family="Times,serif" font-size="14.00" fill="#0b3d91">packages/camera</text>
</g>
<g id="clust2" class="cluster">
<title>cluster_image_proc</title>
<polygon fill="#eef7ff" stroke="#eef7ff" points="25.33,-1075 25.33,-1260 552.05,-1260 552.05,-1075 25.33,-1075"/>
<text xml:space="preserve" text-anchor="middle" x="288.69" y="-1242.7" font-family="Times,serif" font-size="14.00" fill="#0b3d91">packages/image_processing (optional)</text>
</g>
<g id="clust3" class="cluster">
<title>cluster_ai</title>
<polygon fill="#eef7ff" stroke="#eef7ff" points="8,-77 8,-154 323.38,-154 323.38,-77 8,-77"/>
<text xml:space="preserve" text-anchor="middle" x="165.69" y="-136.7" font-family="Times,serif" font-size="14.00" fill="#0b3d91">packages/anti_instagram (optional)</text>
</g>
<g id="clust4" class="cluster">
<title>cluster_ld</title>
<polygon fill="#eef7ff" stroke="#eef7ff" points="418.4,-23 418.4,-262 562.9,-262 562.9,-23 418.4,-23"/>
<text xml:space="preserve" text-anchor="middle" x="490.65" y="-244.7" font-family="Times,serif" font-size="14.00" fill="#0b3d91">packages/line_detector</text>
</g>
<g id="clust5" class="cluster">
<title>cluster_gp</title>
<polygon fill="#eef7ff" stroke="#eef7ff" points="605.65,-102 605.65,-341 774.65,-341 774.65,-102 605.65,-102"/>
<text xml:space="preserve" text-anchor="middle" x="690.15" y="-323.7" font-family="Times,serif" font-size="14.00" fill="#0b3d91">packages/ground_projection</text>
</g>
<g id="clust6" class="cluster">
<title>cluster_lf</title>
<polygon fill="#eef7ff" stroke="#eef7ff" points="811.4,-76 811.4,-261 943.9,-261 943.9,-76 811.4,-76"/>
<text xml:space="preserve" text-anchor="middle" x="877.65" y="-243.7" font-family="Times,serif" font-size="14.00" fill="#0b3d91">packages/lane_filter</text>
</g>
<g id="clust7" class="cluster">
<title>cluster_slf</title>
<polygon fill="#eef7ff" stroke="#eef7ff" points="983.65,-123 983.65,-362 1137.15,-362 1137.15,-123 983.65,-123"/>
<text xml:space="preserve" text-anchor="middle" x="1060.4" y="-344.7" font-family="Times,serif" font-size="14.00" fill="#0b3d91">packages/stop_line_filter</text>
</g>
<g id="clust8" class="cluster">
<title>cluster_vehicle</title>
<polygon fill="#eef7ff" stroke="#eef7ff" points="795.65,-398 795.65,-799 1097.84,-799 1097.84,-398 795.65,-398"/>
<text xml:space="preserve" text-anchor="middle" x="946.75" y="-781.7" font-family="Times,serif" font-size="14.00" fill="#0b3d91">packages/vehicle_detection</text>
</g>
<g id="clust9" class="cluster">
<title>cluster_april</title>
<polygon fill="#eef7ff" stroke="#eef7ff" points="396.65,-612 396.65,-1067 735.08,-1067 735.08,-612 396.65,-612"/>
<text xml:space="preserve" text-anchor="middle" x="565.86" y="-1049.7" font-family="Times,serif" font-size="14.00" fill="#0b3d91">packages/apriltag</text>
</g>
<g id="clust10" class="cluster">
<title>cluster_lc</title>
<polygon fill="#eef7ff" stroke="#eef7ff" points="1179.79,-242 1179.79,-643 1349.63,-643 1349.63,-242 1179.79,-242"/>
<text xml:space="preserve" text-anchor="middle" x="1264.71" y="-625.7" font-family="Times,serif" font-size="14.00" fill="#0b3d91">packages/lane_control</text>
</g>
<g id="clust11" class="cluster">
<title>cluster_fsm</title>
<polygon fill="#eef7ff" stroke="#eef7ff" points="422.15,-352 422.15,-483 751.94,-483 751.94,-352 422.15,-352"/>
<text xml:space="preserve" text-anchor="middle" x="587.05" y="-465.7" font-family="Times,serif" font-size="14.00" fill="#0b3d91">packages/fsm &amp; led_*</text>
</g>
<g id="clust12" class="cluster">
<title>cluster_objdet</title>
<polygon fill="#eef7ff" stroke="#eef7ff" points="980.65,-8 980.65,-85 1368.27,-85 1368.27,-8 980.65,-8"/>
<text xml:space="preserve" text-anchor="middle" x="1174.46" y="-67.7" font-family="Times,serif" font-size="14.00" fill="#0b3d91">packages/object_detection</text>
</g>
<g id="clust13" class="cluster">
<title>cluster_external</title>
<polygon fill="none" stroke="#cccccc" stroke-dasharray="5,2" points="1389.27,-512 1389.27,-589 2126.02,-589 2126.02,-512 1389.27,-512"/>
<text xml:space="preserve" text-anchor="middle" x="1757.64" y="-571.7" font-family="Times,serif" font-size="14.00">External actuation</text>
</g>
<!-- CAM -->
<g id="node1" class="node">
<title>CAM</title>
<polygon fill="none" stroke="black" points="142.62,-573 24.62,-573 24.62,-537 142.62,-537 142.62,-573"/>
<text xml:space="preserve" text-anchor="middle" x="83.62" y="-556.75" font-family="Times,serif" font-size="10.00">/&lt;veh&gt;/camera_node</text>
<text xml:space="preserve" text-anchor="middle" x="83.62" y="-545.5" font-family="Times,serif" font-size="10.00">(camera_driver_node.py)</text>
</g>
<!-- CAM_IMG -->
<g id="node2" class="node">
<title>CAM_IMG</title>
<ellipse fill="none" stroke="black" cx="277.95" cy="-582" rx="56.95" ry="18"/>
<text xml:space="preserve" text-anchor="middle" x="277.95" y="-578.12" font-family="Times,serif" font-size="10.00">~image/compressed</text>
</g>
<!-- CAM&#45;&gt;CAM_IMG -->
<g id="edge1" class="edge">
<title>CAM&#45;&gt;CAM_IMG</title>
<path fill="none" stroke="black" d="M143.11,-563.21C165.52,-566.36 191.17,-569.96 213.98,-573.16"/>
<polygon fill="black" stroke="black" points="213.37,-576.61 223.76,-574.53 214.35,-569.68 213.37,-576.61"/>
<text xml:space="preserve" text-anchor="middle" x="186.12" y="-572.87" font-family="Times,serif" font-size="9.00">publishes</text>
</g>
<!-- CAM_CI -->
<g id="node3" class="node">
<title>CAM_CI</title>
<ellipse fill="none" stroke="black" cx="277.95" cy="-528" rx="42.31" ry="18"/>
<text xml:space="preserve" text-anchor="middle" x="277.95" y="-524.12" font-family="Times,serif" font-size="10.00">~camera_info</text>
</g>
<!-- CAM&#45;&gt;CAM_CI -->
<g id="edge2" class="edge">
<title>CAM&#45;&gt;CAM_CI</title>
<path fill="none" stroke="black" d="M143.11,-546.79C169.56,-543.08 200.53,-538.73 226.01,-535.15"/>
<polygon fill="black" stroke="black" points="226.38,-538.63 235.8,-533.78 225.41,-531.7 226.38,-538.63"/>
<text xml:space="preserve" text-anchor="middle" x="186.12" y="-545.07" font-family="Times,serif" font-size="9.00">publishes</text>
</g>
<!-- LD_IMG -->
<g id="node15" class="node">
<title>LD_IMG</title>
<ellipse fill="none" stroke="black" cx="490.65" cy="-157" rx="56.95" ry="18"/>
<text xml:space="preserve" text-anchor="middle" x="490.65" y="-153.12" font-family="Times,serif" font-size="10.00">~image/compressed</text>
</g>
<!-- CAM_IMG&#45;&gt;LD_IMG -->
<g id="edge10" class="edge">
<title>CAM_IMG&#45;&gt;LD_IMG</title>
<path fill="none" stroke="black" d="M323.01,-570.53C330.63,-566.72 337.75,-561.68 342.9,-555 444.74,-423.13 287.29,-309.69 396.65,-184 404.1,-175.44 414.09,-169.52 424.76,-165.43"/>
<polygon fill="black" stroke="black" points="425.7,-168.81 434.14,-162.4 423.55,-162.14 425.7,-168.81"/>
</g>
<!-- VD_IMG -->
<g id="node30" class="node">
<title>VD_IMG</title>
<ellipse fill="none" stroke="black" cx="877.65" cy="-640" rx="27.22" ry="18"/>
<text xml:space="preserve" text-anchor="middle" x="877.65" y="-636.12" font-family="Times,serif" font-size="10.00">~image</text>
</g>
<!-- CAM_IMG&#45;&gt;VD_IMG -->
<g id="edge14" class="edge">
<title>CAM_IMG&#45;&gt;VD_IMG</title>
<path fill="none" stroke="black" d="M334.86,-580.39C427.22,-578.74 617.11,-579.63 774.65,-608 787.72,-610.35 818.04,-620.07 842.25,-628.19"/>
<polygon fill="black" stroke="black" points="840.83,-631.4 851.43,-631.29 843.07,-624.77 840.83,-631.4"/>
</g>
<!-- ATD_IMG -->
<g id="node38" class="node">
<title>ATD_IMG</title>
<ellipse fill="none" stroke="black" cx="490.65" cy="-746" rx="27.22" ry="18"/>
<text xml:space="preserve" text-anchor="middle" x="490.65" y="-742.12" font-family="Times,serif" font-size="10.00">~image</text>
</g>
<!-- CAM_IMG&#45;&gt;ATD_IMG -->
<g id="edge12" class="edge">
<title>CAM_IMG&#45;&gt;ATD_IMG</title>
<path fill="none" stroke="black" d="M289.54,-600.05C307.7,-629.42 347.6,-687.44 396.65,-719 413.35,-729.75 434.44,-736.32 452.31,-740.29"/>
<polygon fill="black" stroke="black" points="451.54,-743.71 462.03,-742.24 452.92,-736.84 451.54,-743.71"/>
</g>
<!-- GP_CI -->
<g id="node20" class="node">
<title>GP_CI</title>
<ellipse fill="none" stroke="black" cx="689.65" cy="-236" rx="42.31" ry="18"/>
<text xml:space="preserve" text-anchor="middle" x="689.65" y="-232.12" font-family="Times,serif" font-size="10.00">~camera_info</text>
</g>
<!-- CAM_CI&#45;&gt;GP_CI -->
<g id="edge11" class="edge">
<title>CAM_CI&#45;&gt;GP_CI</title>
<path fill="none" stroke="black" d="M286.24,-510.09C301.58,-474.5 340.45,-394.29 396.65,-348 435.49,-316.01 571.14,-271.64 643.07,-249.58"/>
<polygon fill="black" stroke="black" points="644.04,-252.94 652.59,-246.68 642,-246.24 644.04,-252.94"/>
</g>
<!-- VF_CI -->
<g id="node34" class="node">
<title>VF_CI</title>
<ellipse fill="none" stroke="black" cx="877.65" cy="-586" rx="42.31" ry="18"/>
<text xml:space="preserve" text-anchor="middle" x="877.65" y="-582.12" font-family="Times,serif" font-size="10.00">~camera_info</text>
</g>
<!-- CAM_CI&#45;&gt;VF_CI -->
<g id="edge15" class="edge">
<title>CAM_CI&#45;&gt;VF_CI</title>
<path fill="none" stroke="black" d="M319.56,-531.94C425.09,-542.18 707.85,-569.62 824.86,-580.97"/>
<polygon fill="black" stroke="black" points="824.19,-584.43 834.48,-581.91 824.86,-577.46 824.19,-584.43"/>
</g>
<!-- ATD_CI -->
<g id="node39" class="node">
<title>ATD_CI</title>
<ellipse fill="none" stroke="black" cx="490.65" cy="-692" rx="42.31" ry="18"/>
<text xml:space="preserve" text-anchor="middle" x="490.65" y="-688.12" font-family="Times,serif" font-size="10.00">~camera_info</text>
</g>
<!-- CAM_CI&#45;&gt;ATD_CI -->
<g id="edge13" class="edge">
<title>CAM_CI&#45;&gt;ATD_CI</title>
<path fill="none" stroke="black" d="M314.15,-537.66C324.32,-541.75 334.85,-547.38 342.9,-555 382.42,-592.4 355.01,-629.97 396.65,-665 408.34,-674.83 423.44,-681.09 438.07,-685.06"/>
<polygon fill="black" stroke="black" points="437.08,-688.43 447.62,-687.33 438.7,-681.62 437.08,-688.43"/>
</g>
<!-- DEC -->
<g id="node4" class="node">
<title>DEC</title>
<polygon fill="none" stroke="black" points="331.33,-1119 224.58,-1119 224.58,-1083 331.33,-1083 331.33,-1119"/>
<text xml:space="preserve" text-anchor="middle" x="277.95" y="-1097.12" font-family="Times,serif" font-size="10.00">/&lt;veh&gt;/decoder_node</text>
</g>
<!-- DEC_OUT -->
<g id="node6" class="node">
<title>DEC_OUT</title>
<ellipse fill="none" stroke="black" cx="490.65" cy="-1101" rx="52.07" ry="18"/>
<text xml:space="preserve" text-anchor="middle" x="490.65" y="-1097.12" font-family="Times,serif" font-size="10.00">~image_out (raw)</text>
</g>
<!-- DEC&#45;&gt;DEC_OUT -->
<g id="edge4" class="edge">
<title>DEC&#45;&gt;DEC_OUT</title>
<path fill="none" stroke="black" stroke-dasharray="5,2" d="M331.58,-1101C360.54,-1101 396.67,-1101 427.08,-1101"/>
<polygon fill="black" stroke="black" points="426.91,-1104.5 436.91,-1101 426.91,-1097.5 426.91,-1104.5"/>
<text xml:space="preserve" text-anchor="middle" x="369.78" y="-1102.95" font-family="Times,serif" font-size="9.00">publishes</text>
</g>
<!-- DEC_IN -->
<g id="node5" class="node">
<title>DEC_IN</title>
<ellipse fill="none" stroke="black" cx="83.62" cy="-1101" rx="35.21" ry="18"/>
<text xml:space="preserve" text-anchor="middle" x="83.62" y="-1097.12" font-family="Times,serif" font-size="10.00">~image_in</text>
</g>
<!-- DEC_IN&#45;&gt;DEC -->
<g id="edge3" class="edge">
<title>DEC_IN&#45;&gt;DEC</title>
<path fill="none" stroke="black" stroke-dasharray="5,2" d="M119.01,-1101C145.09,-1101 181.68,-1101 213.07,-1101"/>
<polygon fill="black" stroke="black" points="212.86,-1104.5 222.86,-1101 212.86,-1097.5 212.86,-1104.5"/>
<text xml:space="preserve" text-anchor="middle" x="186.12" y="-1102.95" font-family="Times,serif" font-size="9.00">optional</text>
</g>
<!-- REC -->
<g id="node7" class="node">
<title>REC</title>
<polygon fill="none" stroke="black" points="330.95,-1192 224.95,-1192 224.95,-1156 330.95,-1156 330.95,-1192"/>
<text xml:space="preserve" text-anchor="middle" x="277.95" y="-1170.12" font-family="Times,serif" font-size="10.00">/&lt;veh&gt;/rectifier_node</text>
</g>
<!-- REC_IMG_OUT -->
<g id="node10" class="node">
<title>REC_IMG_OUT</title>
<ellipse fill="none" stroke="black" cx="490.65" cy="-1155" rx="52.07" ry="18"/>
<text xml:space="preserve" text-anchor="middle" x="490.65" y="-1151.12" font-family="Times,serif" font-size="10.00">~image_out (rect)</text>
</g>
<!-- REC&#45;&gt;REC_IMG_OUT -->
<g id="edge7" class="edge">
<title>REC&#45;&gt;REC_IMG_OUT</title>
<path fill="none" stroke="black" stroke-dasharray="5,2" d="M331.3,-1169.28C360.7,-1166.63 397.54,-1163.31 428.29,-1160.53"/>
<polygon fill="black" stroke="black" points="428.59,-1164.02 438.24,-1159.64 427.96,-1157.05 428.59,-1164.02"/>
</g>
<!-- REC_CI_OUT -->
<g id="node11" class="node">
<title>REC_CI_OUT</title>
<ellipse fill="none" stroke="black" cx="490.65" cy="-1209" rx="53.4" ry="18"/>
<text xml:space="preserve" text-anchor="middle" x="490.65" y="-1205.12" font-family="Times,serif" font-size="10.00">~camera_info_out</text>
</g>
<!-- REC&#45;&gt;REC_CI_OUT -->
<g id="edge8" class="edge">
<title>REC&#45;&gt;REC_CI_OUT</title>
<path fill="none" stroke="black" stroke-dasharray="5,2" d="M331.3,-1182.7C361.59,-1187.73 399.78,-1194.07 431.06,-1199.27"/>
<polygon fill="black" stroke="black" points="430.31,-1202.69 440.75,-1200.88 431.46,-1195.79 430.31,-1202.69"/>
</g>
<!-- REC_IN -->
<g id="node8" class="node">
<title>REC_IN</title>
<ellipse fill="none" stroke="black" cx="83.62" cy="-1155" rx="35.21" ry="18"/>
<text xml:space="preserve" text-anchor="middle" x="83.62" y="-1151.12" font-family="Times,serif" font-size="10.00">~image_in</text>
</g>
<!-- REC_IN&#45;&gt;REC -->
<g id="edge5" class="edge">
<title>REC_IN&#45;&gt;REC</title>
<path fill="none" stroke="black" stroke-dasharray="5,2" d="M118.57,-1158.35C144.69,-1160.93 181.55,-1164.58 213.14,-1167.7"/>
<polygon fill="black" stroke="black" points="212.71,-1171.17 223,-1168.67 213.39,-1164.2 212.71,-1171.17"/>
</g>
<!-- REC_CI_IN -->
<g id="node9" class="node">
<title>REC_CI_IN</title>
<ellipse fill="none" stroke="black" cx="83.62" cy="-1209" rx="50.29" ry="18"/>
<text xml:space="preserve" text-anchor="middle" x="83.62" y="-1205.12" font-family="Times,serif" font-size="10.00">~camera_info_in</text>
</g>
<!-- REC_CI_IN&#45;&gt;REC -->
<g id="edge6" class="edge">
<title>REC_CI_IN&#45;&gt;REC</title>
<path fill="none" stroke="black" stroke-dasharray="5,2" d="M129.23,-1200.88C154.3,-1196.32 186,-1190.55 213.6,-1185.53"/>
<polygon fill="black" stroke="black" points="214.05,-1189.01 223.26,-1183.77 212.79,-1182.12 214.05,-1189.01"/>
</g>
<!-- AI -->
<g id="node12" class="node">
<title>AI</title>
<polygon fill="none" stroke="black" points="151.25,-121 16,-121 16,-85 151.25,-85 151.25,-121"/>
<text xml:space="preserve" text-anchor="middle" x="83.62" y="-99.12" font-family="Times,serif" font-size="10.00">/&lt;veh&gt;/anti_instagram_node</text>
</g>
<!-- AI_THR -->
<g id="node13" class="node">
<title>AI_THR</title>
<ellipse fill="none" stroke="black" cx="277.95" cy="-103" rx="37.42" ry="18"/>
<text xml:space="preserve" text-anchor="middle" x="277.95" y="-99.12" font-family="Times,serif" font-size="10.00">~thresholds</text>
</g>
<!-- AI&#45;&gt;AI_THR -->
<g id="edge9" class="edge">
<title>AI&#45;&gt;AI_THR</title>
<path fill="none" stroke="black" stroke-dasharray="5,2" d="M151.62,-103C177.03,-103 205.44,-103 228.78,-103"/>
<polygon fill="black" stroke="black" points="228.63,-106.5 238.63,-103 228.63,-99.5 228.63,-106.5"/>
<text xml:space="preserve" text-anchor="middle" x="186.12" y="-104.95" font-family="Times,serif" font-size="9.00">publishes</text>
</g>
<!-- LD_THR -->
<g id="node16" class="node">
<title>LD_THR</title>
<ellipse fill="none" stroke="black" cx="490.65" cy="-103" rx="37.42" ry="18"/>
<text xml:space="preserve" text-anchor="middle" x="490.65" y="-99.12" font-family="Times,serif" font-size="10.00">~thresholds</text>
</g>
<!-- AI_THR&#45;&gt;LD_THR -->
<g id="edge16" class="edge">
<title>AI_THR&#45;&gt;LD_THR</title>
<path fill="none" stroke="black" stroke-dasharray="5,2" d="M315.65,-103C350.59,-103 403.38,-103 441.64,-103"/>
<polygon fill="black" stroke="black" points="441.5,-106.5 451.5,-103 441.5,-99.5 441.5,-106.5"/>
</g>
<!-- LD -->
<g id="node14" class="node">
<title>LD</title>
<polygon fill="none" stroke="black" points="554.9,-67 426.4,-67 426.4,-31 554.9,-31 554.9,-67"/>
<text xml:space="preserve" text-anchor="middle" x="490.65" y="-50.75" font-family="Times,serif" font-size="10.00">/&lt;veh&gt;/line_detector_node</text>
<text xml:space="preserve" text-anchor="middle" x="490.65" y="-39.5" font-family="Times,serif" font-size="10.00">(line_detector_node.py)</text>
</g>
<!-- LD_SEGS -->
<g id="node17" class="node">
<title>LD_SEGS</title>
<ellipse fill="none" stroke="black" cx="490.65" cy="-211" rx="43.19" ry="18"/>
<text xml:space="preserve" text-anchor="middle" x="490.65" y="-207.12" font-family="Times,serif" font-size="10.00">~segment_list</text>
</g>
<!-- GP_IN -->
<g id="node19" class="node">
<title>GP_IN</title>
<ellipse fill="none" stroke="black" cx="689.65" cy="-182" rx="45.41" ry="18"/>
<text xml:space="preserve" text-anchor="middle" x="689.65" y="-178.12" font-family="Times,serif" font-size="10.00">~lineseglist_in</text>
</g>
<!-- LD_SEGS&#45;&gt;GP_IN -->
<g id="edge17" class="edge">
<title>LD_SEGS&#45;&gt;GP_IN</title>
<path fill="none" stroke="black" d="M531.99,-205.06C561.9,-200.66 602.95,-194.62 635.53,-189.82"/>
<polygon fill="black" stroke="black" points="635.78,-193.32 645.17,-188.4 634.76,-186.4 635.78,-193.32"/>
</g>
<!-- GP -->
<g id="node18" class="node">
<title>GP</title>
<polygon fill="none" stroke="black" points="765.15,-146 614.15,-146 614.15,-110 765.15,-110 765.15,-146"/>
<text xml:space="preserve" text-anchor="middle" x="689.65" y="-129.75" font-family="Times,serif" font-size="10.00">/&lt;veh&gt;/ground_projection_node</text>
<text xml:space="preserve" text-anchor="middle" x="689.65" y="-118.5" font-family="Times,serif" font-size="10.00">(ground_projection_node.py)</text>
</g>
<!-- GP_OUT -->
<g id="node21" class="node">
<title>GP_OUT</title>
<ellipse fill="none" stroke="black" cx="689.65" cy="-290" rx="48.52" ry="18"/>
<text xml:space="preserve" text-anchor="middle" x="689.65" y="-286.12" font-family="Times,serif" font-size="10.00">~lineseglist_out</text>
</g>
<!-- LF_IN -->
<g id="node23" class="node">
<title>LF_IN</title>
<ellipse fill="none" stroke="black" cx="877.65" cy="-102" rx="43.19" ry="18"/>
<text xml:space="preserve" text-anchor="middle" x="877.65" y="-98.12" font-family="Times,serif" font-size="10.00">~segment_list</text>
</g>
<!-- GP_OUT&#45;&gt;LF_IN -->
<g id="edge18" class="edge">
<title>GP_OUT&#45;&gt;LF_IN</title>
<path fill="none" stroke="black" d="M736.43,-284.76C750.59,-280.9 764.99,-274.29 774.65,-263 813.84,-217.19 756.71,-175.02 795.65,-129 803.27,-120 813.98,-113.98 825.12,-109.97"/>
<polygon fill="black" stroke="black" points="825.85,-113.4 834.4,-107.14 823.81,-106.71 825.85,-113.4"/>
</g>
<!-- SLF_IN_SEGS -->
<g id="node26" class="node">
<title>SLF_IN_SEGS</title>
<ellipse fill="none" stroke="black" cx="1060.4" cy="-257" rx="43.19" ry="18"/>
<text xml:space="preserve" text-anchor="middle" x="1060.4" y="-253.12" font-family="Times,serif" font-size="10.00">~segment_list</text>
</g>
<!-- GP_OUT&#45;&gt;SLF_IN_SEGS -->
<g id="edge19" class="edge">
<title>GP_OUT&#45;&gt;SLF_IN_SEGS</title>
<path fill="none" stroke="black" d="M737.35,-285.82C806.15,-279.66 934.38,-268.19 1006.54,-261.73"/>
<polygon fill="black" stroke="black" points="1006.47,-265.25 1016.12,-260.87 1005.84,-258.28 1006.47,-265.25"/>
</g>
<!-- LF -->
<g id="node22" class="node">
<title>LF</title>
<polygon fill="none" stroke="black" points="935.9,-174 819.4,-174 819.4,-138 935.9,-138 935.9,-174"/>
<text xml:space="preserve" text-anchor="middle" x="877.65" y="-157.75" font-family="Times,serif" font-size="10.00">/&lt;veh&gt;/lane_filter_node</text>
<text xml:space="preserve" text-anchor="middle" x="877.65" y="-146.5" font-family="Times,serif" font-size="10.00">(lane_filter_node.py)</text>
</g>
<!-- LF_POSE -->
<g id="node24" class="node">
<title>LF_POSE</title>
<ellipse fill="none" stroke="black" cx="877.65" cy="-210" rx="36.98" ry="18"/>
<text xml:space="preserve" text-anchor="middle" x="877.65" y="-206.12" font-family="Times,serif" font-size="10.00">~lane_pose</text>
</g>
<!-- SLF_IN_POSE -->
<g id="node27" class="node">
<title>SLF_IN_POSE</title>
<ellipse fill="none" stroke="black" cx="1060.4" cy="-203" rx="36.98" ry="18"/>
<text xml:space="preserve" text-anchor="middle" x="1060.4" y="-199.12" font-family="Times,serif" font-size="10.00">~lane_pose</text>
</g>
<!-- LF_POSE&#45;&gt;SLF_IN_POSE -->
<g id="edge20" class="edge">
<title>LF_POSE&#45;&gt;SLF_IN_POSE</title>
<path fill="none" stroke="black" d="M914.79,-208.6C942.75,-207.52 981.69,-206.01 1012.12,-204.83"/>
<polygon fill="black" stroke="black" points="1011.95,-208.34 1021.81,-204.46 1011.68,-201.35 1011.95,-208.34"/>
</g>
<!-- LC_IN_POSE -->
<g id="node47" class="node">
<title>LC_IN_POSE</title>
<ellipse fill="none" stroke="black" cx="1264.71" cy="-268" rx="36.98" ry="18"/>
<text xml:space="preserve" text-anchor="middle" x="1264.71" y="-264.12" font-family="Times,serif" font-size="10.00">~lane_pose</text>
</g>
<!-- LF_POSE&#45;&gt;LC_IN_POSE -->
<g id="edge21" class="edge">
<title>LF_POSE&#45;&gt;LC_IN_POSE</title>
<path fill="none" stroke="black" d="M912.56,-203.45C926.04,-199.42 940.87,-193.04 951.65,-183 974.51,-161.72 954.41,-135.92 980.65,-119 1039.11,-81.31 1074.02,-89.79 1137.15,-119 1191.26,-144.03 1230.7,-204.87 1250.13,-240.58"/>
<polygon fill="black" stroke="black" points="1246.82,-241.82 1254.58,-249.03 1253.01,-238.55 1246.82,-241.82"/>
</g>
<!-- SLF -->
<g id="node25" class="node">
<title>SLF</title>
<polygon fill="none" stroke="black" points="1129.15,-167 991.65,-167 991.65,-131 1129.15,-131 1129.15,-167"/>
<text xml:space="preserve" text-anchor="middle" x="1060.4" y="-150.75" font-family="Times,serif" font-size="10.00">/&lt;veh&gt;/stop_line_filter_node</text>
<text xml:space="preserve" text-anchor="middle" x="1060.4" y="-139.5" font-family="Times,serif" font-size="10.00">(stop_line_filter_node.py)</text>
</g>
<!-- SLF_OUT -->
<g id="node28" class="node">
<title>SLF_OUT</title>
<ellipse fill="none" stroke="black" cx="1060.4" cy="-311" rx="56.51" ry="18"/>
<text xml:space="preserve" text-anchor="middle" x="1060.4" y="-307.12" font-family="Times,serif" font-size="10.00">~stop_line_reading</text>
</g>
<!-- LC_IN_STOP -->
<g id="node48" class="node">
<title>LC_IN_STOP</title>
<ellipse fill="none" stroke="black" cx="1264.71" cy="-322" rx="56.51" ry="18"/>
<text xml:space="preserve" text-anchor="middle" x="1264.71" y="-318.12" font-family="Times,serif" font-size="10.00">~stop_line_reading</text>
</g>
<!-- SLF_OUT&#45;&gt;LC_IN_STOP -->
<g id="edge22" class="edge">
<title>SLF_OUT&#45;&gt;LC_IN_STOP</title>
<path fill="none" stroke="black" d="M1116.42,-313.99C1141.39,-315.35 1171.13,-316.97 1197.33,-318.39"/>
<polygon fill="black" stroke="black" points="1197.02,-321.88 1207.2,-318.93 1197.4,-314.89 1197.02,-321.88"/>
</g>
<!-- VD -->
<g id="node29" class="node">
<title>VD</title>
<polygon fill="none" stroke="black" points="951.65,-442 803.65,-442 803.65,-406 951.65,-406 951.65,-442"/>
<text xml:space="preserve" text-anchor="middle" x="877.65" y="-425.75" font-family="Times,serif" font-size="10.00">/&lt;veh&gt;/vehicle_detection_node</text>
<text xml:space="preserve" text-anchor="middle" x="877.65" y="-414.5" font-family="Times,serif" font-size="10.00">(vehicle_detection_node.py)</text>
</g>
<!-- VD_CENTERS -->
<g id="node31" class="node">
<title>VD_CENTERS</title>
<ellipse fill="none" stroke="black" cx="877.65" cy="-748" rx="29.44" ry="18"/>
<text xml:space="preserve" text-anchor="middle" x="877.65" y="-744.12" font-family="Times,serif" font-size="10.00">~centers</text>
</g>
<!-- VF_CENTERS -->
<g id="node33" class="node">
<title>VF_CENTERS</title>
<ellipse fill="none" stroke="black" cx="1060.4" cy="-748" rx="29.44" ry="18"/>
<text xml:space="preserve" text-anchor="middle" x="1060.4" y="-744.12" font-family="Times,serif" font-size="10.00">~centers</text>
</g>
<!-- VD_CENTERS&#45;&gt;VF_CENTERS -->
<g id="edge23" class="edge">
<title>VD_CENTERS&#45;&gt;VF_CENTERS</title>
<path fill="none" stroke="black" d="M907.29,-748C937.48,-748 985.27,-748 1019.22,-748"/>
<polygon fill="black" stroke="black" points="1019.08,-751.5 1029.08,-748 1019.08,-744.5 1019.08,-751.5"/>
</g>
<!-- VF -->
<g id="node32" class="node">
<title>VF</title>
<polygon fill="none" stroke="black" points="942.28,-496 813.03,-496 813.03,-460 942.28,-460 942.28,-496"/>
<text xml:space="preserve" text-anchor="middle" x="877.65" y="-479.75" font-family="Times,serif" font-size="10.00">/&lt;veh&gt;/vehicle_filter_node</text>
<text xml:space="preserve" text-anchor="middle" x="877.65" y="-468.5" font-family="Times,serif" font-size="10.00">(vehicle_filter_node.py)</text>
</g>
<!-- VF_MODE -->
<g id="node35" class="node">
<title>VF_MODE</title>
<ellipse fill="none" stroke="black" cx="877.65" cy="-694" rx="54.29" ry="18"/>
<text xml:space="preserve" text-anchor="middle" x="877.65" y="-690.12" font-family="Times,serif" font-size="10.00">~mode (FSMState)</text>
</g>
<!-- VF_VSL -->
<g id="node36" class="node">
<title>VF_VSL</title>
<ellipse fill="none" stroke="black" cx="877.65" cy="-532" rx="54.29" ry="18"/>
<text xml:space="preserve" text-anchor="middle" x="877.65" y="-528.12" font-family="Times,serif" font-size="10.00">~virtual_stop_line</text>
</g>
<!-- LC_IN_OBS -->
<g id="node49" class="node">
<title>LC_IN_OBS</title>
<ellipse fill="none" stroke="black" cx="1264.71" cy="-430" rx="76.92" ry="18"/>
<text xml:space="preserve" text-anchor="middle" x="1264.71" y="-426.12" font-family="Times,serif" font-size="10.00">~obstacle_distance_reading</text>
</g>
<!-- VF_VSL&#45;&gt;LC_IN_OBS -->
<g id="edge24" class="edge">
<title>VF_VSL&#45;&gt;LC_IN_OBS</title>
<path fill="none" stroke="black" d="M920.96,-520.79C988.97,-502.78 1122.95,-467.29 1201.75,-446.41"/>
<polygon fill="black" stroke="black" points="1202.26,-449.9 1211.03,-443.95 1200.47,-443.13 1202.26,-449.9"/>
</g>
<!-- ATD -->
<g id="node37" class="node">
<title>ATD</title>
<polygon fill="none" stroke="black" points="562.78,-656 418.53,-656 418.53,-620 562.78,-620 562.78,-656"/>
<text xml:space="preserve" text-anchor="middle" x="490.65" y="-639.75" font-family="Times,serif" font-size="10.00">/&lt;veh&gt;/apriltag_detector_node</text>
<text xml:space="preserve" text-anchor="middle" x="490.65" y="-628.5" font-family="Times,serif" font-size="10.00">(apriltag_detector_node.py)</text>
</g>
<!-- ATD_DET -->
<g id="node40" class="node">
<title>ATD_DET</title>
<ellipse fill="none" stroke="black" cx="490.65" cy="-800" rx="37.42" ry="18"/>
<text xml:space="preserve" text-anchor="middle" x="490.65" y="-796.12" font-family="Times,serif" font-size="10.00">~detections</text>
</g>
<!-- ATP_IN -->
<g id="node42" class="node">
<title>ATP_IN</title>
<ellipse fill="none" stroke="black" cx="689.65" cy="-771" rx="37.42" ry="18"/>
<text xml:space="preserve" text-anchor="middle" x="689.65" y="-767.12" font-family="Times,serif" font-size="10.00">~detections</text>
</g>
<!-- ATD_DET&#45;&gt;ATP_IN -->
<g id="edge25" class="edge">
<title>ATD_DET&#45;&gt;ATP_IN</title>
<path fill="none" stroke="black" d="M526.87,-794.82C559.13,-790.07 607.08,-783.01 642.41,-777.81"/>
<polygon fill="black" stroke="black" points="642.52,-781.33 651.91,-776.41 641.5,-774.4 642.52,-781.33"/>
</g>
<!-- LC_IN_ATD -->
<g id="node50" class="node">
<title>LC_IN_ATD</title>
<ellipse fill="none" stroke="black" cx="1264.71" cy="-484" rx="59.17" ry="18"/>
<text xml:space="preserve" text-anchor="middle" x="1264.71" y="-480.12" font-family="Times,serif" font-size="10.00">~apriltag_detections</text>
</g>
<!-- ATD_DET&#45;&gt;LC_IN_ATD -->
<g id="edge26" class="edge">
<title>ATD_DET&#45;&gt;LC_IN_ATD</title>
<path fill="none" stroke="black" d="M527.16,-804.92C566.54,-809.94 632.01,-817 688.65,-817 688.65,-817 688.65,-817 1061.4,-817 1095.64,-817 1113.85,-828.08 1137.15,-803 1226.01,-707.35 1084.96,-610.78 1169.15,-511 1176.42,-502.39 1186.22,-496.42 1196.77,-492.31"/>
<polygon fill="black" stroke="black" points="1197.66,-495.7 1206.07,-489.26 1195.48,-489.05 1197.66,-495.7"/>
</g>
<!-- ATP -->
<g id="node41" class="node">
<title>ATP</title>
<polygon fill="none" stroke="black" points="576.65,-872 404.65,-872 404.65,-836 576.65,-836 576.65,-872"/>
<text xml:space="preserve" text-anchor="middle" x="490.65" y="-855.75" font-family="Times,serif" font-size="10.00">/&lt;veh&gt;/apriltag_postprocessing_node</text>
<text xml:space="preserve" text-anchor="middle" x="490.65" y="-844.5" font-family="Times,serif" font-size="10.00">(apriltag_postprocessing_node.py)</text>
</g>
<!-- ATP_OUT -->
<g id="node43" class="node">
<title>ATP_OUT</title>
<ellipse fill="none" stroke="black" cx="490.65" cy="-908" rx="44.53" ry="18"/>
<text xml:space="preserve" text-anchor="middle" x="490.65" y="-904.12" font-family="Times,serif" font-size="10.00">~apriltags_out</text>
</g>
<!-- ATP_PARK -->
<g id="node44" class="node">
<title>ATP_PARK</title>
<ellipse fill="none" stroke="black" cx="490.65" cy="-962" rx="55.18" ry="18"/>
<text xml:space="preserve" text-anchor="middle" x="490.65" y="-958.12" font-family="Times,serif" font-size="10.00">~apriltags_parking</text>
</g>
<!-- ATP_INT -->
<g id="node45" class="node">
<title>ATP_INT</title>
<ellipse fill="none" stroke="black" cx="490.65" cy="-1016" rx="64.94" ry="18"/>
<text xml:space="preserve" text-anchor="middle" x="490.65" y="-1012.12" font-family="Times,serif" font-size="10.00">~apriltags_intersection</text>
</g>
<!-- LC -->
<g id="node46" class="node">
<title>LC</title>
<polygon fill="none" stroke="black" points="1333.09,-394 1196.34,-394 1196.34,-358 1333.09,-358 1333.09,-394"/>
<text xml:space="preserve" text-anchor="middle" x="1264.71" y="-377.75" font-family="Times,serif" font-size="10.00">/&lt;veh&gt;/lane_controller_node</text>
<text xml:space="preserve" text-anchor="middle" x="1264.71" y="-366.5" font-family="Times,serif" font-size="10.00">(lane_controller_node.py)</text>
</g>
<!-- LC_WCE -->
<g id="node51" class="node">
<title>LC_WCE</title>
<ellipse fill="none" stroke="black" cx="1264.71" cy="-592" rx="42.75" ry="18"/>
<text xml:space="preserve" text-anchor="middle" x="1264.71" y="-588.12" font-family="Times,serif" font-size="10.00">~wheels_cmd</text>
</g>
<!-- LC_CMD -->
<g id="node52" class="node">
<title>LC_CMD</title>
<ellipse fill="none" stroke="black" cx="1264.71" cy="-538" rx="32.99" ry="18"/>
<text xml:space="preserve" text-anchor="middle" x="1264.71" y="-534.12" font-family="Times,serif" font-size="10.00">~car_cmd</text>
</g>
<!-- CARCMD -->
<g id="node58" class="node">
<title>CARCMD</title>
<ellipse fill="none" stroke="black" cx="1492.83" cy="-538" rx="95.56" ry="18"/>
<text xml:space="preserve" text-anchor="middle" x="1492.83" y="-534.12" font-family="Times,serif" font-size="10.00">/&lt;veh&gt;/car_cmd_switch_node/cmd</text>
</g>
<!-- LC_CMD&#45;&gt;CARCMD -->
<g id="edge27" class="edge">
<title>LC_CMD&#45;&gt;CARCMD</title>
<path fill="none" stroke="black" d="M1298.11,-538C1321.27,-538 1353.85,-538 1385.69,-538"/>
<polygon fill="black" stroke="black" points="1385.39,-541.5 1395.39,-538 1385.39,-534.5 1385.39,-541.5"/>
</g>
<!-- FSM -->
<g id="node53" class="node">
<title>FSM</title>
<polygon fill="none" stroke="black" points="535.03,-396 446.28,-396 446.28,-360 535.03,-360 535.03,-396"/>
<text xml:space="preserve" text-anchor="middle" x="490.65" y="-379.75" font-family="Times,serif" font-size="10.00">/&lt;veh&gt;/fsm_node</text>
<text xml:space="preserve" text-anchor="middle" x="490.65" y="-368.5" font-family="Times,serif" font-size="10.00">(fsm_node.py)</text>
</g>
<!-- FSM_MODE -->
<g id="node54" class="node">
<title>FSM_MODE</title>
<ellipse fill="none" stroke="black" cx="689.65" cy="-378" rx="54.29" ry="18"/>
<text xml:space="preserve" text-anchor="middle" x="689.65" y="-374.12" font-family="Times,serif" font-size="10.00">~mode (FSMState)</text>
</g>
<!-- FSM&#45;&gt;FSM_MODE -->
<g id="edge34" class="edge">
<title>FSM&#45;&gt;FSM_MODE</title>
<path fill="none" stroke="black" d="M535.37,-378C561.29,-378 594.63,-378 623.59,-378"/>
<polygon fill="black" stroke="black" points="623.35,-381.5 633.35,-378 623.35,-374.5 623.35,-381.5"/>
</g>
<!-- FSM_MODE&#45;&gt;LF -->
<g id="edge36" class="edge">
<title>FSM_MODE&#45;&gt;LF</title>
<path fill="none" stroke="black" d="M737.67,-369.18C751.57,-364.3 765.49,-356.73 774.65,-345 796.99,-316.38 772.57,-211.02 795.65,-183 799.54,-178.28 804.28,-174.38 809.49,-171.16"/>
<polygon fill="black" stroke="black" points="810.7,-174.47 817.96,-166.76 807.47,-168.26 810.7,-174.47"/>
</g>
<!-- FSM_MODE&#45;&gt;VF -->
<g id="edge37" class="edge">
<title>FSM_MODE&#45;&gt;VF</title>
<path fill="none" stroke="black" d="M711.25,-394.99C731.64,-411.16 764.29,-435.28 795.65,-451 798.57,-452.46 801.59,-453.87 804.66,-455.23"/>
<polygon fill="black" stroke="black" points="803.32,-458.46 813.9,-459.06 806,-452 803.32,-458.46"/>
</g>
<!-- FSM_MODE&#45;&gt;LC -->
<g id="edge35" class="edge">
<title>FSM_MODE&#45;&gt;LC</title>
<path fill="none" stroke="black" d="M744.31,-377.81C845.69,-377.46 1065.82,-376.69 1184.35,-376.28"/>
<polygon fill="black" stroke="black" points="1184.34,-379.78 1194.33,-376.24 1184.32,-372.78 1184.34,-379.78"/>
</g>
<!-- LED -->
<g id="node55" class="node">
<title>LED</title>
<polygon fill="none" stroke="black" points="551.15,-450 430.15,-450 430.15,-414 551.15,-414 551.15,-450"/>
<text xml:space="preserve" text-anchor="middle" x="490.65" y="-433.75" font-family="Times,serif" font-size="10.00">/&lt;veh&gt;/led_emitter_node</text>
<text xml:space="preserve" text-anchor="middle" x="490.65" y="-422.5" font-family="Times,serif" font-size="10.00">(svc set_pattern)</text>
</g>
<!-- OBJ -->
<g id="node56" class="node">
<title>OBJ</title>
<polygon fill="none" stroke="black" points="1132.15,-52 988.65,-52 988.65,-16 1132.15,-16 1132.15,-52"/>
<text xml:space="preserve" text-anchor="middle" x="1060.4" y="-35.75" font-family="Times,serif" font-size="10.00">/&lt;veh&gt;/object_detection_node</text>
<text xml:space="preserve" text-anchor="middle" x="1060.4" y="-24.5" font-family="Times,serif" font-size="10.00">(object_detection_node.py)</text>
</g>
<!-- OBJ_CMD -->
<g id="node57" class="node">
<title>OBJ_CMD</title>
<ellipse fill="none" stroke="black" cx="1264.71" cy="-34" rx="95.56" ry="18"/>
<text xml:space="preserve" text-anchor="middle" x="1264.71" y="-30.12" font-family="Times,serif" font-size="10.00">/&lt;veh&gt;/car_cmd_switch_node/cmd</text>
</g>
<!-- OBJ&#45;&gt;OBJ_CMD -->
<g id="edge28" class="edge">
<title>OBJ&#45;&gt;OBJ_CMD</title>
<path fill="none" stroke="black" d="M1132.44,-34C1140.51,-34 1148.85,-34 1157.24,-34"/>
<polygon fill="black" stroke="black" points="1157.18,-37.5 1167.18,-34 1157.18,-30.5 1157.18,-37.5"/>
</g>
<!-- OBJ_CMD&#45;&gt;CARCMD -->
<g id="edge29" class="edge">
<title>OBJ_CMD&#45;&gt;CARCMD</title>
<path fill="none" stroke="black" d="M1275.51,-52.34C1294.34,-87.8 1336.5,-168.4 1368.27,-238 1413.15,-336.31 1460.16,-455.76 1480.9,-509.45"/>
<polygon fill="black" stroke="black" points="1477.51,-510.39 1484.37,-518.46 1484.04,-507.87 1477.51,-510.39"/>
</g>
<!-- WD_CMD -->
<g id="node60" class="node">
<title>WD_CMD</title>
<ellipse fill="none" stroke="black" cx="1684.56" cy="-538" rx="59.17" ry="18"/>
<text xml:space="preserve" text-anchor="middle" x="1684.56" y="-534.12" font-family="Times,serif" font-size="10.00">/&lt;veh&gt;/wheels_cmd</text>
</g>
<!-- CARCMD&#45;&gt;WD_CMD -->
<g id="edge30" class="edge">
<title>CARCMD&#45;&gt;WD_CMD</title>
<path fill="none" stroke="black" d="M1588.69,-538C1597.13,-538 1605.57,-538 1613.74,-538"/>
<polygon fill="black" stroke="black" points="1613.57,-541.5 1623.57,-538 1613.57,-534.5 1613.57,-541.5"/>
</g>
<!-- WD -->
<g id="node59" class="node">
<title>WD</title>
<polygon fill="none" stroke="black" points="1912.98,-556 1780.73,-556 1780.73,-520 1912.98,-520 1912.98,-556"/>
<text xml:space="preserve" text-anchor="middle" x="1846.85" y="-534.12" font-family="Times,serif" font-size="10.00">/&lt;veh&gt;/wheels_driver_node</text>
</g>
<!-- WD_EXEC -->
<g id="node61" class="node">
<title>WD_EXEC</title>
<ellipse fill="none" stroke="black" cx="2034" cy="-538" rx="84.02" ry="18"/>
<text xml:space="preserve" text-anchor="middle" x="2034" y="-534.12" font-family="Times,serif" font-size="10.00">/&lt;veh&gt;/wheels_cmd_executed</text>
</g>
<!-- WD&#45;&gt;WD_EXEC -->
<g id="edge32" class="edge">
<title>WD&#45;&gt;WD_EXEC</title>
<path fill="none" stroke="black" d="M1913.39,-538C1921.47,-538 1929.85,-538 1938.26,-538"/>
<polygon fill="black" stroke="black" points="1938.2,-541.5 1948.2,-538 1938.2,-534.5 1938.2,-541.5"/>
</g>
<!-- WD_CMD&#45;&gt;WD -->
<g id="edge31" class="edge">
<title>WD_CMD&#45;&gt;WD</title>
<path fill="none" stroke="black" d="M1743.88,-538C1752,-538 1760.45,-538 1768.85,-538"/>
<polygon fill="black" stroke="black" points="1768.73,-541.5 1778.73,-538 1768.73,-534.5 1768.73,-541.5"/>
</g>
<!-- WD_EXEC&#45;&gt;LC_WCE -->
<g id="edge33" class="edge">
<title>WD_EXEC&#45;&gt;LC_WCE</title>
<path fill="none" stroke="black" d="M1995.5,-554.37C1958.65,-568.95 1900.46,-588 1847.85,-588 1491.83,-588 1491.83,-588 1491.83,-588 1432.77,-588 1365.06,-589.38 1319.24,-590.52"/>
<polygon fill="black" stroke="black" points="1319.22,-587.02 1309.31,-590.77 1319.4,-594.02 1319.22,-587.02"/>
</g>
</g>
</svg>
